<?xml version="1.0" standalone="no"?>
<!DOCTYPE svg PUBLIC "-//W3C//DTD SVG 20010904//EN"
 "http://www.w3.org/TR/2001/REC-SVG-20010904/DTD/svg10.dtd">
<svg version="1.0" xmlns="http://www.w3.org/2000/svg"
 width="1279.000000pt" height="1279.000000pt" viewBox="0 0 1279.000000 1279.000000"
 preserveAspectRatio="xMidYMid meet">
<metadata>
Created by potrace 1.14, written by Peter Selinger 2001-2017
</metadata>
<g transform="translate(0.000000,1279.000000) scale(0.100000,-0.100000)"
fill="#000000" stroke="none">
<path d="M1453 12749 c-29 -37 -31 -41 -17 -67 18 -36 21 -193 5 -249 -7 -25
-27 -57 -48 -78 l-37 -36 18 -31 c24 -39 32 -138 17 -210 -9 -42 -22 -68 -52
-101 -44 -50 -47 -62 -22 -90 13 -14 19 -41 22 -97 4 -98 -16 -163 -64 -209
-19 -18 -35 -37 -35 -41 0 -5 12 -31 26 -57 23 -43 25 -56 21 -129 -5 -89 -18
-121 -73 -178 l-37 -39 27 -54 c45 -93 32 -194 -38 -284 l-46 -59 25 -54 c63
-133 7 -300 -109 -322 -50 -9 -69 1 -131 64 -65 66 -80 108 -72 197 3 34 1 79
-4 100 -6 22 -14 101 -18 175 -6 112 -12 144 -31 185 -17 36 -27 81 -35 159
-8 92 -13 110 -27 112 -10 1 -22 -5 -27 -14 -10 -18 -9 -20 -26 33 -11 38 -24
8 -29 -72 -10 -130 -13 -145 -47 -199 -25 -38 -34 -69 -44 -140 -8 -54 -23
-111 -38 -140 -40 -81 -47 -239 -31 -779 9 -285 5 -304 -85 -383 l-68 -61 -9
-103 c-6 -57 -7 -123 -3 -148 12 -69 10 -657 -1 -730 -7 -44 -22 -84 -47 -123
l-35 -59 21 -72 c21 -71 22 -88 20 -577 -1 -277 -1 -639 0 -804 3 -374 -7
-498 -49 -628 l-31 -98 1 -322 c1 -177 5 -356 9 -397 7 -75 -2 -222 -20 -315
-9 -46 -13 -52 -60 -78 -48 -26 -52 -27 -75 -13 -13 9 -28 16 -34 16 -6 0 -10
-51 -10 -141 l0 -142 44 6 c52 7 110 -7 137 -34 23 -23 59 -25 59 -4 0 8 9 15
19 15 11 0 23 4 26 10 3 5 28 16 54 24 42 12 57 12 115 0 37 -8 77 -20 88 -28
24 -17 86 -11 150 15 53 22 98 25 116 7 14 -14 120 -16 233 -4 73 7 76 7 100
-19 50 -55 64 -66 101 -77 46 -14 78 -1 145 55 39 32 46 34 80 26 21 -4 55
-15 76 -24 21 -9 43 -13 48 -9 14 8 152 27 199 27 19 0 73 -5 120 -12 74 -11
91 -10 138 5 60 18 78 14 141 -35 79 -60 130 -66 177 -20 17 16 41 31 53 32
11 1 21 5 21 10 0 4 5 5 11 1 6 -3 15 0 20 7 7 11 9 9 9 -7 0 -13 -8 -24 -20
-27 -20 -5 -28 -27 -10 -27 14 0 5 -100 -9 -110 -7 -4 -19 -19 -26 -33 -13
-26 -13 -27 11 -27 l25 0 -24 -26 c-15 -16 -23 -34 -19 -46 3 -14 -1 -21 -16
-25 -17 -4 -20 -9 -12 -23 7 -13 6 -28 -1 -47 -6 -15 -8 -43 -4 -61 3 -18 3
-38 -2 -45 -13 -21 -13 -47 -1 -47 8 0 9 -3 2 -10 -7 -7 -8 -32 -3 -68 4 -31
13 -97 20 -147 7 -49 18 -102 25 -116 7 -14 11 -34 10 -45 -2 -10 -1 -23 2
-28 3 -6 7 -19 8 -30 3 -39 27 -141 34 -146 4 -3 10 -13 13 -24 4 -11 13 -16
22 -12 26 10 16 -14 -20 -45 -33 -29 -35 -35 -35 -93 0 -43 7 -76 24 -113 19
-39 25 -69 25 -122 0 -74 23 -182 47 -218 19 -31 19 -31 -28 -44 -53 -14 -72
-30 -99 -86 -18 -37 -19 -49 -10 -69 6 -14 11 -38 11 -54 0 -20 6 -31 20 -35
11 -3 20 -11 20 -17 0 -6 -7 -5 -17 3 -15 13 -15 12 -5 -6 9 -18 2 -32 -50
-100 -84 -112 -98 -126 -117 -116 -46 22 -178 -30 -164 -65 3 -8 0 -14 -7 -14
-8 0 -11 -10 -7 -27 5 -27 -10 -73 -24 -73 -15 0 -69 -52 -63 -61 3 -5 -16 -9
-43 -8 -39 1 -43 3 -23 9 14 4 19 8 13 9 -18 1 -53 38 -53 56 0 8 8 15 18 15
13 1 9 8 -16 31 -19 17 -31 36 -29 43 3 7 -2 37 -10 67 -9 30 -23 86 -32 125
-18 78 -33 104 -62 104 -25 0 -60 -36 -53 -54 8 -22 -36 -46 -83 -46 -39 0
-44 -3 -57 -33 -20 -48 -59 -70 -113 -64 -42 4 -71 -8 -36 -15 13 -3 8 -10
-21 -24 l-38 -19 -24 30 c-45 56 -55 66 -65 59 -7 -4 -10 3 -8 17 1 13 -1 61
-5 107 -5 50 -4 87 2 95 18 23 23 69 12 103 -7 19 -15 34 -19 34 -4 0 -15 18
-25 40 -12 28 -29 46 -54 58 -54 25 -71 60 -92 187 -5 28 -14 66 -20 85 -27
85 -40 317 -29 540 3 69 -18 157 -41 170 -28 15 -73 -3 -90 -36 -16 -33 -19
-138 -6 -229 14 -97 13 -325 -1 -374 -7 -24 -10 -47 -7 -52 3 -5 1 -9 -5 -9
-5 0 -15 -26 -21 -58 -6 -31 -18 -75 -27 -97 -9 -22 -17 -51 -19 -65 -1 -13
-8 -26 -13 -28 -6 -2 -11 -9 -11 -17 0 -7 -7 -18 -15 -25 -8 -7 -14 -18 -13
-24 1 -6 -3 -38 -10 -71 -7 -33 -14 -71 -15 -85 -5 -36 -31 -93 -50 -109 -10
-7 -17 -23 -17 -34 0 -27 -22 -87 -32 -87 -4 0 -8 -7 -8 -17 0 -15 -1 -15 -18
0 -24 22 -31 22 -86 -9 -45 -25 -48 -26 -66 -9 -11 10 -20 24 -20 32 0 7 -4
13 -9 13 -5 0 -16 17 -24 38 -12 27 -16 31 -16 16 -1 -12 -8 -25 -16 -28 -9
-3 -23 -23 -32 -43 -8 -21 -20 -41 -25 -44 -5 -4 -13 -34 -17 -68 -5 -43 -14
-68 -31 -86 -13 -14 -20 -25 -17 -25 13 0 -32 -39 -62 -54 -40 -21 -40 -21
-57 19 -18 44 -30 44 -48 3 l-14 -33 -1 28 c-1 25 -4 27 -41 27 l-40 0 0 -40
c0 -37 2 -40 28 -40 15 0 33 -5 40 -12 9 -9 12 -9 12 0 0 7 5 12 10 12 6 0 10
-20 10 -45 0 -28 9 -64 24 -93 24 -47 22 -83 -3 -67 -19 11 -41 -15 -41 -51 0
-18 -4 -35 -10 -39 -5 -3 -7 -12 -4 -19 7 -17 -36 -58 -53 -52 -10 4 -13 -11
-13 -59 l0 -64 48 -7 c89 -15 361 -7 385 11 13 9 16 22 13 49 -6 50 21 49 30
-1 4 -21 13 -42 20 -48 25 -20 34 -192 11 -207 -31 -20 -102 3 -102 31 0 6 -4
11 -10 10 -5 0 -9 -7 -7 -15 2 -8 -4 -15 -13 -15 -8 -1 -21 -2 -27 -3 -7 -1
-12 5 -10 12 1 8 -3 29 -9 47 l-13 34 -85 0 c-47 0 -102 5 -121 11 -28 8 -42
7 -72 -7 l-38 -18 0 -852 0 -853 2539 0 2538 0 61 63 c159 163 202 209 202
216 0 4 9 19 21 32 37 44 54 63 99 119 25 30 48 57 52 58 5 2 8 10 8 18 0 8 5
14 10 14 10 0 19 8 89 73 24 23 45 36 52 31 8 -5 10 -2 7 8 -4 9 4 21 23 32
16 9 29 21 29 25 0 10 76 84 130 126 25 19 50 39 55 43 6 5 59 42 120 83 60
41 118 82 129 92 11 9 26 17 33 17 7 0 32 19 55 42 l41 41 29 -34 c36 -43 109
-153 165 -246 l42 -73 -40 -37 c-22 -21 -48 -42 -57 -47 -24 -14 -331 -256
-437 -345 -49 -42 -153 -138 -230 -213 l-140 -137 505 -1 505 0 10 23 c7 14 7
31 1 49 -7 20 -6 40 3 70 7 24 18 71 24 106 8 41 19 69 31 77 21 16 40 10 33
-8 -3 -7 6 -32 19 -57 32 -63 54 -134 54 -178 0 -81 2 -82 101 -82 l88 0 -4
70 c-2 39 -7 75 -10 80 -3 6 0 12 7 15 9 4 14 27 15 70 2 73 19 135 36 135 7
0 25 16 41 35 32 38 47 43 66 20 7 -8 21 -15 31 -15 30 0 61 -99 65 -208 3
-56 0 -101 -7 -113 -6 -12 -12 -36 -14 -55 l-2 -34 392 0 392 0 49 26 c27 14
54 29 59 33 23 16 93 34 124 32 53 -3 80 -48 49 -79 -9 -9 490 -12 2245 -12
l2257 0 0 2759 c0 1579 -4 2762 -9 2765 -5 3 -17 -18 -28 -47 -11 -28 -25 -51
-31 -49 -7 1 -15 -11 -18 -28 -5 -24 -12 -30 -33 -30 -25 0 -91 48 -91 67 0 4
-16 19 -35 32 -49 33 -74 79 -68 127 2 21 10 46 18 55 8 8 15 21 15 27 0 7 4
12 10 12 5 0 17 17 26 38 13 30 15 73 12 243 -2 154 0 210 9 221 10 12 29 14
86 10 68 -4 75 -3 105 23 28 23 32 33 32 75 0 66 -16 98 -63 121 -32 17 -44
18 -71 9 -19 -6 -38 -21 -44 -35 -10 -22 -18 -25 -61 -25 -31 0 -53 5 -61 15
-7 8 -16 13 -20 10 -5 -3 -21 11 -37 30 -17 22 -40 38 -58 41 -40 7 -66 34
-66 70 0 16 8 79 19 139 24 140 24 275 -1 303 -33 36 -46 317 -17 346 6 6 10
20 10 32 0 30 56 138 86 167 13 12 24 27 24 34 0 6 4 13 8 15 5 1 31 35 58 74
46 68 113 151 159 198 12 12 37 46 57 76 20 30 46 63 57 72 21 18 21 24 21
456 l0 438 -31 30 c-65 61 -62 43 -88 679 -17 409 -33 491 -100 508 -48 12
-90 46 -114 92 -21 37 -22 55 -23 270 -1 205 -21 513 -40 603 -7 36 -19 48
-29 32 -5 -7 -12 -5 -20 7 -32 43 -43 -30 -44 -295 -1 -156 3 -227 13 -265 21
-75 29 -299 14 -367 -11 -51 -12 -87 -6 -215 1 -34 -4 -59 -16 -77 -13 -20
-16 -37 -12 -63 4 -19 11 -35 16 -35 13 0 23 -65 16 -95 -5 -19 -20 -32 -53
-46 -52 -22 -78 -20 -114 12 -22 19 -24 28 -24 103 0 74 -3 86 -32 131 -41 65
-53 108 -64 235 -5 58 -12 128 -15 157 -4 36 -1 66 10 99 14 42 14 50 1 70 -8
13 -20 46 -26 74 -18 87 -68 88 -76 3 -5 -46 -8 -51 -42 -63 -59 -23 -71 -21
-116 11 -40 29 -44 36 -54 93 -6 35 -11 97 -11 139 0 69 -3 81 -30 119 -23 34
-33 64 -46 143 -8 55 -13 120 -10 144 5 38 2 51 -21 84 -35 50 -53 138 -53
263 0 91 -2 103 -25 134 -35 48 -44 87 -52 230 -5 106 -10 131 -29 161 -34 55
-46 113 -49 235 -2 100 -5 114 -28 150 -35 52 -48 118 -50 244 -2 94 -5 108
-27 138 l-24 32 -747 0 -747 0 -7 -42 c-4 -24 -9 -72 -10 -108 -1 -36 -8 -78
-16 -94 l-13 -29 -85 6 c-74 4 -89 2 -113 -14 -15 -11 -31 -34 -36 -52 -8 -32
-7 -149 2 -173 8 -20 66 -45 85 -35 16 9 52 14 82 12 9 -1 27 -9 40 -20 20
-16 23 -30 29 -130 4 -62 12 -117 18 -123 7 -7 12 -29 12 -49 0 -30 -7 -43
-32 -64 -32 -27 -34 -27 -133 -21 -120 8 -129 3 -139 -84 -3 -30 -9 -73 -12
-95 -7 -55 15 -197 33 -212 14 -11 19 -26 23 -63 1 -11 3 -11 7 -2 2 6 9 10
14 6 5 -3 10 0 10 5 3 26 4 30 12 37 4 4 7 16 7 26 0 10 7 18 16 18 9 0 18 8
21 18 4 17 9 18 44 8 26 -7 39 -16 39 -27 0 -10 6 -20 13 -22 8 -4 9 -8 1 -14
-19 -14 -25 -43 -9 -43 21 0 19 -17 -5 -37 -29 -26 -25 -48 20 -92 22 -22 40
-45 40 -53 1 -7 9 -31 20 -53 32 -66 28 -79 -33 -93 -70 -16 -142 -6 -172 24
-65 65 -118 31 -128 -82 -21 -227 -21 -237 4 -269 13 -16 24 -34 24 -40 2 -18
17 -45 26 -45 5 0 15 11 21 25 6 14 29 39 51 55 33 24 43 27 65 19 15 -6 37
-8 49 -4 40 10 63 -11 63 -56 0 -22 14 -76 31 -120 l31 -81 -32 -76 c-17 -42
-36 -95 -42 -117 -6 -22 -15 -45 -20 -51 -5 -7 -4 -31 2 -59 9 -41 8 -49 -7
-60 -22 -16 -33 -10 -33 16 0 10 -12 29 -26 42 -15 12 -32 27 -38 33 -7 6 -28
19 -46 29 -19 10 -45 28 -58 40 -21 21 -102 47 -190 62 -54 9 -66 38 -55 135
l9 83 -37 71 c-32 58 -39 84 -45 152 -7 89 -6 94 57 227 25 53 44 111 54 170
8 50 20 102 26 117 12 29 4 113 -11 123 -4 3 -11 23 -15 45 -4 22 -11 42 -15
45 -5 3 -14 29 -20 58 -8 43 -7 64 8 123 10 39 25 82 34 96 20 31 48 95 43
100 -2 2 5 37 17 78 31 115 32 141 9 199 -12 28 -30 74 -42 102 -27 66 -19
132 26 221 26 49 37 88 45 150 5 45 12 93 16 106 l6 22 -344 0 -344 0 4 -135
c5 -154 2 -172 -34 -215 -26 -30 -26 -32 -14 -91 15 -69 8 -234 -10 -271 -7
-12 -21 -33 -32 -44 -17 -19 -18 -26 -7 -67 6 -27 10 -92 8 -155 -4 -104 -5
-109 -37 -149 -29 -37 -31 -44 -21 -70 6 -15 11 -78 10 -140 0 -116 -9 -151
-50 -203 -19 -23 -19 -29 -7 -81 20 -82 4 -236 -29 -289 -13 -21 -29 -41 -35
-45 -15 -10 -12 -55 5 -61 10 -4 15 -19 15 -43 0 -27 -3 -32 -10 -21 -5 8 -7
22 -5 31 9 27 -29 50 -90 55 -53 5 -61 9 -101 52 -49 52 -69 107 -79 215 -5
51 -11 70 -25 77 -30 16 -68 12 -90 -10 -18 -18 -20 -33 -20 -192 0 -263 -13
-313 -94 -353 -39 -20 -69 -19 -116 5 -92 47 -101 27 -106 -235 -3 -149 1
-228 13 -308 13 -86 14 -116 4 -147 -14 -48 -59 -87 -109 -95 -48 -8 -94 -31
-137 -69 -33 -29 -35 -35 -36 -98 -2 -64 -1 -68 30 -94 41 -34 58 -67 71 -140
14 -73 28 -297 35 -559 2 -110 7 -241 10 -291 8 -131 -8 -225 -46 -280 -35
-52 -38 -78 -14 -157 26 -88 13 -313 -23 -417 -26 -75 -27 -76 -25 -370 0
-162 4 -375 8 -472 6 -145 4 -189 -9 -247 -10 -43 -16 -117 -16 -193 0 -149
-22 -320 -47 -368 -16 -32 -18 -60 -16 -295 1 -150 7 -292 14 -336 11 -67 10
-85 -4 -136 -21 -75 -22 -147 -1 -178 20 -30 15 -65 -11 -79 -11 -6 -24 -16
-30 -23 -15 -18 -81 -27 -90 -13 -6 9 -24 -4 -59 -42 -28 -31 -62 -59 -74 -63
-31 -9 -128 -9 -587 1 -209 5 -405 8 -435 6 -30 -1 -69 3 -86 9 -36 11 -129
105 -144 144 -6 15 -13 95 -16 178 -8 246 -10 254 -55 299 -21 21 -41 51 -44
66 -4 15 -11 47 -18 72 -6 25 -11 84 -11 132 1 80 -1 88 -20 95 -12 3 -33 6
-47 4 -23 -2 -74 24 -115 58 -16 14 -37 471 -36 786 3 548 1 604 -19 650 -11
24 -28 49 -39 55 -33 18 -43 84 -45 305 -2 165 -7 232 -23 315 -18 89 -21 146
-22 380 -1 151 -1 304 -1 340 2 88 -16 164 -51 227 -26 47 -31 67 -43 210 -8
87 -15 199 -15 248 0 50 -7 124 -16 165 -11 54 -14 101 -10 165 9 131 -9 296
-38 353 -13 26 -29 80 -36 121 -13 76 -40 121 -74 121 -9 0 -23 14 -32 31 -21
42 -31 238 -15 305 9 36 9 73 1 139 -5 50 -13 160 -17 245 -8 196 -14 218 -59
186 -17 -13 -20 -33 -27 -188 -4 -95 -9 -226 -11 -291 -4 -136 -13 -156 -76
-175 -37 -11 -50 -11 -97 4 -38 12 -58 25 -66 41 -14 32 -38 29 -91 -12 -25
-19 -57 -37 -71 -41 -30 -7 -34 -24 -5 -24 55 0 100 -49 100 -110 0 -43 -26
-90 -50 -90 -10 0 -22 -4 -25 -10 -8 -13 -39 -13 -86 2 -32 9 -41 18 -55 54
-21 55 -12 108 24 141 l27 25 -25 19 c-52 41 -82 73 -91 96 -5 13 -11 82 -13
153 -4 112 -7 133 -25 156 -34 43 -45 101 -45 241 -1 109 -4 134 -18 150 -32
36 -49 105 -51 208 -1 55 1 111 5 125 6 20 1 33 -22 60 -19 23 -32 53 -40 94
-18 101 -22 179 -12 222 8 37 7 43 -18 71 -37 41 -55 144 -47 276 5 90 3 99
-14 110 -19 12 -41 72 -54 150 l-6 37 -1272 -1 -1272 0 -32 -40z m1326 -85
c43 -43 46 -49 46 -99 0 -47 4 -58 31 -87 38 -39 51 -97 33 -142 -12 -31 -76
-106 -91 -106 -5 0 -28 -10 -53 -21 -39 -19 -47 -27 -56 -65 -15 -58 -38 -76
-104 -82 -48 -4 -56 -2 -78 22 -45 48 -44 112 4 171 14 17 44 135 36 140 -71
45 -94 93 -76 158 22 82 123 156 213 157 44 0 52 -4 95 -46z m922 -148 c47
-76 0 -167 -93 -181 -79 -12 -128 27 -128 100 0 70 37 115 103 125 56 8 95 -6
118 -44z m6879 18 c0 -2 -12 -4 -27 -4 -21 0 -24 3 -14 9 13 8 41 5 41 -5z
m-7897 -669 c18 -8 40 -29 49 -45 12 -21 25 -30 44 -30 29 0 76 -20 113 -49
36 -27 47 -111 21 -162 -11 -21 -17 -44 -14 -52 3 -8 -2 -43 -11 -77 -9 -34
-14 -65 -11 -67 3 -3 22 -7 42 -10 107 -12 157 -104 99 -183 -35 -47 -78 -72
-126 -74 -78 -2 -128 91 -95 177 19 51 20 65 4 49 -7 -7 -21 -12 -33 -12 -39
-1 -67 -27 -98 -91 -38 -75 -77 -102 -142 -95 -30 4 -48 14 -74 41 -31 35 -33
40 -29 96 3 46 10 65 30 87 14 15 32 45 39 66 9 25 29 50 56 70 23 17 42 34
43 37 0 3 -18 12 -41 19 -85 28 -104 114 -46 210 33 55 97 109 130 110 11 0
33 -7 50 -15z m-755 -38 c2 -15 0 -27 -5 -26 -26 4 -31 -2 -20 -25 7 -13 15
-22 19 -20 4 3 5 -2 2 -10 -14 -37 -53 -25 -54 17 0 9 -7 17 -16 17 -13 0 -15
-8 -9 -52 l7 -53 -21 19 c-33 30 -29 95 8 130 16 16 34 25 39 22 6 -4 14 -2
17 4 11 18 30 5 33 -23z m52 3 c0 -5 -4 -10 -10 -10 -5 0 -10 5 -10 10 0 6 5
10 10 10 6 0 10 -4 10 -10z m1219 -153 c-5 -21 -7 -47 -3 -59 4 -14 2 -18 -5
-14 -14 9 -14 58 1 91 16 35 19 26 7 -18z m557 -6 c36 -22 59 -70 50 -107 -9
-34 -62 -82 -105 -94 -40 -11 -92 9 -116 44 -20 27 -19 91 1 125 29 50 115 66
170 32z m-1976 -63 c105 -36 105 -164 0 -219 -100 -54 -191 19 -160 128 13 47
29 68 66 88 35 18 51 19 94 3z m873 -539 c12 -7 54 -46 94 -88 58 -61 72 -72
73 -54 0 21 42 63 64 63 13 0 76 -66 76 -80 0 -13 -33 -13 -46 0 -19 19 -37
-15 -27 -47 7 -20 20 -32 49 -41 53 -18 112 -77 125 -126 12 -43 2 -73 -41
-127 -12 -14 -27 -41 -33 -61 -14 -39 -63 -100 -95 -117 -11 -6 -32 -11 -46
-11 -19 0 -26 -5 -26 -19 0 -10 7 -21 15 -25 12 -4 11 -13 -10 -53 -43 -87
-97 -123 -183 -123 -26 0 -66 -7 -90 -15 -23 -8 -53 -13 -66 -9 -38 9 -84 64
-91 109 -8 54 27 124 73 144 40 18 40 31 1 56 -39 26 -59 64 -59 115 0 51 11
73 63 127 l40 42 -18 27 c-10 15 -31 38 -46 51 -55 47 -47 132 20 206 55 61
130 84 184 56z m808 -108 c33 -33 39 -45 39 -81 0 -50 -36 -92 -91 -108 -88
-24 -139 15 -139 105 0 49 4 59 34 89 28 28 42 34 76 34 36 0 48 -6 81 -39z
m4919 -211 c0 -5 -7 -10 -15 -10 -8 0 -15 5 -15 10 0 6 7 10 15 10 8 0 15 -4
15 -10z m723 -313 c61 -57 59 -159 -5 -212 -28 -24 -38 -26 -78 -21 -66 9
-111 57 -118 125 -4 42 0 57 19 86 44 64 127 74 182 22z m321 -262 c23 -35 20
-80 -8 -109 -29 -32 -64 -33 -102 -4 -53 41 -55 45 -43 70 13 29 38 46 81 53
18 3 34 8 37 11 9 9 19 3 35 -21z m269 -50 c4 -8 2 -17 -3 -20 -6 -4 -10 3
-10 14 0 25 6 27 13 6z m-6602 -37 c4 -6 3 -25 -1 -44 -6 -26 -4 -36 8 -43 13
-7 12 -10 -6 -15 -30 -10 -27 -39 6 -69 131 -117 129 -115 135 -169 7 -59 -8
-101 -38 -106 -11 -2 -27 -10 -36 -18 -15 -14 -25 -17 -86 -28 -13 -3 -25 0
-28 5 -8 13 -72 11 -94 -2 -14 -10 -24 -7 -49 11 -31 23 -32 26 -28 81 5 61
22 102 65 159 52 70 70 100 74 125 1 13 6 27 10 31 4 4 10 29 13 56 6 44 9 48
28 42 11 -4 24 -11 27 -16z m5777 -174 c16 -5 22 -14 22 -34 0 -23 -6 -29 -41
-40 -35 -12 -42 -12 -50 1 -10 16 -12 63 -2 72 8 9 41 9 71 1z m-301 -396 c4
-7 15 -30 24 -52 14 -35 14 -44 1 -77 -10 -26 -22 -39 -39 -42 -22 -4 -24 -2
-20 20 3 18 -1 27 -17 33 -11 4 -24 6 -28 3 -5 -2 -8 5 -8 16 0 12 5 21 10 21
6 0 10 16 10 35 0 45 46 74 67 43z m-5839 -524 c6 -10 26 -16 60 -18 28 -1 55
-6 59 -10 4 -4 8 -54 8 -111 l0 -103 -41 -15 c-33 -12 -49 -13 -85 -3 -103 27
-116 45 -121 160 -2 55 0 60 31 85 38 31 76 38 89 15z m807 -80 c15 -69 15
-77 1 -93 -9 -10 -16 -22 -16 -28 0 -32 -133 -76 -190 -63 -23 6 -25 10 -25
70 0 36 5 73 12 84 6 10 9 24 7 30 -5 12 26 43 62 64 10 6 44 12 75 12 l57 0
17 -76z m5227 -145 c66 -47 78 -162 23 -219 -24 -25 -37 -30 -74 -30 -57 1
-82 14 -120 65 -95 125 44 274 171 184z m1616 -81 c-5 -32 -28 -35 -28 -4 0
17 5 26 16 26 10 0 14 -7 12 -22z m-7674 -481 c3 -11 2 -25 -2 -31 -28 -44
-40 -124 -21 -143 13 -13 -9 -53 -28 -53 -7 0 -13 -9 -13 -20 0 -10 -9 -24
-20 -30 -11 -6 -18 -15 -15 -19 2 -5 -2 -14 -10 -21 -10 -9 -15 -9 -15 -1 0
20 -32 12 -56 -14 -26 -28 -62 -33 -70 -10 -9 22 4 82 22 99 8 8 13 19 12 23
-5 17 44 100 87 146 25 27 47 58 50 70 8 31 71 35 79 4z m946 -217 c11 -7 12
-12 3 -21 -13 -13 -33 -4 -33 17 0 16 9 18 30 4z m5205 -680 c0 -18 -16 -22
-35 -10 -13 9 -13 11 0 20 19 12 35 8 35 -10z m3298 -225 c19 -18 27 -36 27
-58 0 -32 -15 -108 -26 -137 -4 -8 -8 -49 -11 -90 -2 -41 -6 -84 -7 -95 -2
-11 3 -29 11 -41 23 -36 21 -107 -5 -134 -12 -13 -22 -27 -22 -32 0 -4 -6 -8
-14 -8 -7 0 -24 -16 -37 -35 -13 -19 -27 -35 -30 -35 -3 0 -11 12 -18 26 -9
21 -14 24 -26 14 -20 -17 -19 -81 1 -128 10 -23 18 -72 20 -130 2 -51 6 -102
9 -112 10 -31 -12 -93 -46 -131 -16 -18 -36 -47 -43 -64 -20 -45 -41 -119 -38
-129 2 -5 -2 -12 -8 -16 -6 -4 5 -6 25 -5 54 3 88 -7 124 -38 28 -23 34 -36
36 -75 2 -26 8 -66 13 -90 6 -24 6 -54 2 -70 -20 -67 -35 -182 -27 -204 5 -13
13 -54 18 -92 10 -75 8 -79 -72 -166 -32 -35 -40 -38 -65 -31 -32 8 -119 -9
-119 -24 0 -6 -10 -26 -23 -46 -12 -20 -25 -52 -28 -70 -10 -53 -55 -90 -81
-69 -2 2 -6 3 -10 5 -50 14 -66 66 -62 198 2 53 7 99 11 103 4 4 29 9 55 11
27 2 58 5 71 6 12 1 22 8 22 15 0 6 5 12 10 12 6 0 10 -4 10 -10 0 -5 6 -7 14
-4 11 4 13 19 9 62 -2 31 -9 64 -14 74 -16 30 -5 86 22 108 4 3 18 28 33 57
28 57 32 86 15 130 -5 15 -13 50 -16 77 -2 27 -9 60 -14 73 -6 16 -5 31 1 44
8 15 7 19 -5 19 -8 0 -15 5 -15 11 0 13 -81 87 -116 105 -14 8 -46 14 -69 14
-48 0 -46 -4 -60 105 -9 67 -24 88 -115 168 -76 66 -78 68 -70 103 4 19 16 46
26 60 11 15 26 37 34 49 9 13 34 41 57 62 22 21 68 76 102 123 35 47 84 108
110 135 53 56 116 132 178 215 22 30 49 65 59 77 11 12 39 47 64 77 52 64 79
71 123 31z m-3131 -20 c0 -5 -5 -11 -11 -13 -6 -2 -11 4 -11 13 0 9 5 15 11
13 6 -2 11 -8 11 -13z m-154 -62 c6 -15 12 -37 12 -49 0 -12 12 -37 27 -54 22
-27 25 -35 15 -51 -7 -10 -12 -41 -12 -69 0 -39 4 -52 20 -60 12 -6 17 -17 14
-28 -5 -14 -52 -111 -59 -120 -1 -1 -16 11 -34 27 -37 34 -40 64 -8 86 15 12
18 19 10 22 -7 3 -13 9 -13 15 0 5 -9 22 -19 37 -32 45 -36 77 -12 91 17 8 19
15 11 29 -6 13 -6 38 1 78 16 83 25 93 47 46z m178 -89 c14 -30 15 -42 6 -68
-15 -42 -15 -56 1 -56 15 0 34 -33 39 -64 6 -37 -86 -63 -112 -31 -10 11 -9
24 4 61 11 33 13 52 6 65 -14 25 -2 101 18 117 21 16 19 17 38 -24z m386 -29
c4 -38 26 -70 56 -79 12 -4 20 -12 17 -17 -4 -5 -1 -9 4 -9 15 0 14 -45 -2
-58 -7 -6 -38 -18 -68 -26 -30 -8 -68 -20 -86 -27 -28 -12 -34 -11 -57 12 -14
13 -26 28 -26 33 0 20 62 136 73 135 25 -3 38 1 32 11 -3 6 -1 10 4 10 6 0 11
9 11 19 0 11 3 27 6 36 10 24 33 -2 36 -40z m499 24 c5 -8 8 -32 7 -54 -3 -33
-8 -42 -32 -54 -25 -12 -36 -11 -75 1 -41 12 -46 17 -47 43 0 19 10 40 25 58
22 24 32 27 70 23 24 -2 47 -10 52 -17z m513 -45 c9 -3 16 -12 16 -20 0 -16
-6 -16 -35 -5 -11 5 -25 4 -32 -1 -7 -6 -30 -7 -53 -3 -34 6 -39 9 -29 21 12
14 102 20 133 8z m-7732 -74 c12 0 24 -12 34 -32 8 -18 19 -40 26 -49 17 -25
1 -67 -32 -84 -43 -22 -87 -19 -124 10 -27 20 -35 35 -40 72 -5 37 -3 50 12
63 26 24 43 30 76 25 16 -3 37 -5 48 -5z m6845 -46 c-3 -3 -12 -4 -19 -1 -8 3
-5 6 6 6 11 1 17 -2 13 -5z m-6602 -138 c68 -29 96 -125 51 -175 -19 -21 -20
-53 -1 -105 12 -35 12 -45 -4 -90 -12 -36 -25 -55 -44 -64 -16 -8 -27 -21 -27
-33 0 -10 -4 -19 -10 -19 -15 0 -143 90 -158 111 -7 11 -20 19 -28 19 -24 0
-54 61 -54 110 1 53 12 76 62 119 21 18 42 47 49 65 14 39 64 76 102 76 15 0
43 -6 62 -14z m5431 -112 c0 -33 -11 -44 -43 -44 -26 0 -39 34 -29 75 6 24 8
24 39 12 25 -11 32 -20 33 -43z m377 -196 c13 -30 12 -36 -5 -60 -21 -30 -38
-36 -38 -14 0 8 -16 20 -35 26 -43 14 -44 24 -6 40 16 6 32 18 35 26 9 25 36
15 49 -18z m-5783 -169 c0 -5 -4 -9 -10 -9 -5 0 -10 7 -10 16 0 8 5 12 10 9 6
-3 10 -10 10 -16z m-223 -21 c21 -12 53 -36 71 -53 30 -28 34 -37 34 -89 0
-34 -6 -73 -17 -97 -14 -30 -16 -42 -7 -51 7 -7 12 -20 12 -29 0 -11 6 -16 18
-12 28 7 100 -13 137 -38 87 -60 120 -258 70 -423 -8 -26 -13 -52 -10 -56 3
-5 -8 -14 -25 -22 -16 -7 -30 -16 -30 -20 0 -5 -6 -8 -14 -8 -8 0 -17 -7 -20
-16 -4 -9 -9 -14 -12 -11 -3 3 -24 -1 -47 -9 -33 -12 -47 -12 -70 -3 -24 10
-34 9 -56 -4 -15 -9 -46 -16 -69 -15 -69 1 -100 51 -92 148 1 14 6 30 12 37 5
7 12 45 14 85 2 40 7 81 10 90 4 12 -2 21 -18 27 -13 5 -40 27 -62 49 -32 34
-38 47 -39 84 0 23 0 75 0 113 -1 240 -1 234 19 262 30 40 68 65 111 73 21 4
39 8 40 9 1 0 19 -9 40 -21z m8301 -363 c7 -14 12 -47 12 -73 0 -28 15 -88 36
-147 38 -108 60 -232 48 -274 -4 -14 -8 -30 -10 -36 -1 -5 -7 -30 -14 -55 -6
-25 -12 -52 -14 -62 -1 -9 -7 -22 -13 -30 -6 -7 -12 -20 -14 -28 -4 -23 12
-70 22 -64 5 3 6 -2 3 -10 -3 -9 -2 -16 4 -16 5 0 13 -11 16 -25 4 -14 10 -23
15 -20 13 7 21 -20 21 -71 0 -32 4 -44 15 -44 8 0 15 -4 15 -10 0 -5 -5 -9
-12 -7 -6 1 -13 -7 -15 -18 -9 -44 -13 -51 -23 -35 -7 11 -10 5 -10 -20 0 -27
3 -32 11 -20 8 12 9 11 7 -5 -3 -13 -10 -19 -22 -17 -16 3 -18 -2 -14 -32 2
-19 1 -33 -2 -31 -9 6 -35 -19 -46 -45 -11 -24 -11 -24 -18 13 -4 22 -15 41
-27 48 -12 6 -18 13 -15 16 3 3 -3 17 -14 31 -11 13 -17 28 -15 32 3 5 -2 45
-11 89 -18 89 -11 124 30 162 32 31 29 153 -8 249 -29 77 -55 105 -139 152
-41 23 -47 35 -47 91 0 46 27 118 50 132 5 3 16 20 25 38 8 18 31 49 50 70 19
21 37 46 40 56 5 17 38 39 61 40 6 1 16 -10 22 -24z m1402 -570 c13 -12 18
-25 14 -37 -3 -10 -2 -18 3 -17 21 4 22 -3 8 -31 -8 -16 -15 -40 -15 -54 0
-13 -11 -38 -25 -54 -13 -16 -22 -32 -18 -36 11 -10 -21 -6 -37 5 -11 8 -12
12 -2 16 17 7 15 30 -4 37 -9 3 -26 6 -40 6 -26 0 -28 7 -39 98 -3 31 -1 60 5
73 10 18 19 20 71 16 38 -3 66 -11 79 -22z m-57 -287 c-10 -17 31 -108 66
-144 l38 -41 -12 -69 c-6 -38 -15 -77 -19 -87 -5 -10 -6 -36 -3 -58 4 -33 3
-39 -10 -35 -8 3 -19 6 -24 6 -5 0 -9 9 -9 20 0 11 -6 20 -13 20 -8 0 -20 19
-27 42 -7 24 -23 53 -37 66 -20 18 -23 28 -17 50 4 15 6 50 5 77 -2 67 15 154
36 177 17 19 18 19 24 1 4 -10 5 -21 2 -25z m-1023 -114 c-4 -16 -9 -23 -9
-15 -1 8 -4 11 -8 8 -8 -9 -43 22 -43 39 0 16 52 23 62 8 4 -6 3 -24 -2 -40z
m-6087 5 c25 -14 126 -6 137 10 10 17 125 27 134 12 4 -6 16 -11 26 -11 10 0
38 -22 61 -50 37 -44 47 -50 80 -50 30 0 46 8 83 44 72 67 115 68 209 3 15
-10 21 -9 33 8 10 13 17 16 22 9 5 -8 21 -8 57 2 80 21 107 18 156 -20 28 -22
60 -37 89 -41 40 -5 48 -3 75 23 60 56 103 64 205 37 43 -11 69 -12 125 -4
104 15 156 5 213 -42 43 -36 52 -39 102 -37 30 1 70 -2 88 -6 25 -6 32 -4 32
7 0 22 28 29 58 13 41 -21 84 -22 113 -3 14 9 45 19 70 21 25 3 56 9 70 14 37
14 185 -2 159 -18 -9 -6 -8 -9 8 -14 11 -4 23 -13 26 -21 5 -15 44 -13 141 5
28 5 56 9 63 9 6 1 12 8 12 17 0 13 6 15 28 8 15 -4 40 -8 57 -8 23 -1 33 -8
44 -31 8 -16 21 -36 29 -44 19 -19 11 -126 -18 -261 -21 -97 -38 -230 -46
-353 -2 -37 -9 -78 -15 -89 -7 -12 -18 -47 -26 -77 -8 -31 -18 -73 -24 -95
-15 -58 -37 -96 -64 -106 -13 -5 -26 -18 -30 -29 -3 -12 -12 -21 -20 -21 -7 0
-15 -6 -18 -12 -6 -19 -46 19 -63 61 -8 18 -14 55 -14 82 0 26 -4 50 -9 53
-13 8 -21 80 -26 234 -4 130 -14 194 -38 241 -14 29 -87 65 -101 51 -6 -6 -17
-10 -26 -10 -9 0 -33 -15 -53 -34 -37 -33 -37 -34 -37 -112 1 -44 5 -99 10
-124 6 -30 4 -91 -6 -185 -22 -220 -35 -288 -56 -311 -25 -28 -38 -77 -38
-146 0 -32 -3 -58 -8 -58 -9 0 -32 -94 -32 -130 0 -28 -16 -58 -25 -48 -3 3
-13 48 -21 99 -7 52 -21 112 -29 134 -9 22 -18 48 -22 58 -3 9 -9 17 -14 17
-5 0 -9 8 -9 19 0 23 -38 32 -100 24 -43 -5 -80 -30 -80 -53 0 -5 -4 -10 -8
-10 -15 0 -34 -83 -38 -164 -2 -54 -10 -91 -24 -117 -11 -22 -16 -39 -12 -40
4 0 -3 -4 -15 -9 -13 -5 -23 -18 -23 -29 0 -11 -4 -22 -10 -26 -5 -3 -7 -12
-4 -20 11 -27 -33 -38 -96 -25 -45 9 -68 10 -106 0 -27 -6 -65 -13 -84 -14
-19 -2 -42 -5 -50 -9 -58 -21 -85 -27 -88 -17 -2 5 -9 10 -15 10 -6 0 -20 9
-32 20 -38 36 -74 2 -89 -82 -4 -21 -11 -38 -16 -38 -6 0 -10 -8 -10 -17 -1
-17 -1 -17 -14 0 -16 21 -42 22 -50 2 -3 -8 -10 -14 -15 -13 -5 2 -16 -6 -25
-17 -15 -19 -16 -19 -28 13 -7 17 -16 32 -20 32 -4 0 -8 11 -8 25 0 31 -68
167 -80 160 -5 -3 -10 5 -12 17 -2 15 -13 24 -38 31 -19 5 -46 19 -61 33 -30
28 -66 31 -108 7 -26 -15 -33 -16 -40 -4 -10 16 -81 7 -81 -10 0 -6 -4 -7 -10
-4 -6 3 -7 -1 -4 -9 3 -9 1 -16 -5 -16 -6 0 -11 8 -11 18 0 14 -2 15 -10 2 -8
-13 -10 -12 -10 4 0 12 -5 16 -15 12 -9 -3 -25 6 -40 22 -20 21 -25 23 -25 9
0 -10 -8 -17 -20 -17 -11 0 -25 -9 -32 -20 -7 -11 -18 -20 -25 -20 -7 0 -13
-11 -13 -24 0 -13 -7 -29 -15 -36 -8 -7 -15 -18 -15 -24 0 -7 -15 -12 -35 -12
-19 0 -30 3 -24 7 6 3 -38 5 -97 2 -101 -4 -110 -6 -136 -31 -15 -15 -28 -32
-28 -37 0 -6 -9 -29 -20 -50 -13 -25 -18 -51 -15 -67 3 -16 8 -41 11 -58 4
-23 2 -30 -10 -30 -19 0 -21 -32 -5 -61 7 -15 7 -24 -1 -34 -6 -7 -9 -19 -8
-26 2 -8 -3 -13 -11 -11 -7 2 -1 -11 13 -29 21 -25 24 -34 14 -40 -8 -6 -14
-3 -16 6 -2 9 -7 13 -11 10 -5 -2 -19 7 -31 20 -13 14 -28 25 -32 25 -5 0 -15
6 -23 13 -11 11 -9 16 8 26 20 13 20 13 -4 27 -13 7 -37 11 -54 9 -16 -3 -24
-2 -17 1 20 9 -5 34 -34 34 -13 0 -27 6 -31 13 -9 15 -122 81 -128 75 -3 -2
-11 -37 -20 -78 -9 -41 -17 -76 -20 -78 -2 -2 -2 80 -1 183 2 115 7 190 13
194 6 3 13 29 17 56 3 28 8 70 12 94 7 50 -12 158 -34 183 -8 10 -15 28 -16
40 -1 19 -6 22 -28 20 -21 -2 -27 2 -30 20 -2 13 -8 22 -14 21 -6 -1 -10 11
-9 28 1 16 -2 32 -7 35 -4 3 -8 0 -8 -5 0 -6 -5 -11 -12 -11 -9 0 -9 3 0 12 7
7 12 22 12 34 0 13 6 29 13 36 7 7 13 22 14 34 5 75 25 220 31 225 4 4 22 10
39 14 45 9 44 11 94 -269 12 -67 7 -303 -7 -386 -4 -19 -4 -32 0 -29 15 14 38
179 33 241 -2 37 0 69 5 70 5 2 12 56 15 121 5 107 4 119 -13 137 -37 37 -68
90 -44 75 12 -8 36 40 44 90 12 74 15 155 5 161 -6 4 -6 11 2 20 7 9 8 14 1
14 -7 0 -8 10 -2 31 6 20 6 39 0 50 -6 10 -6 20 -2 23 9 5 8 137 0 152 -3 5
-8 41 -12 79 -12 123 -17 150 -27 153 -6 3 -6 9 2 18 7 8 7 14 1 14 -5 0 -9
12 -9 26 0 15 -6 30 -13 34 -15 9 -6 73 13 88 38 29 137 13 137 -23 0 -38 110
-43 129 -6 5 9 29 23 53 30 24 7 50 16 58 20 16 9 81 -3 113 -20z m3419 -104
c31 -13 67 -80 67 -126 -1 -230 1 -254 19 -303 37 -100 44 -121 49 -148 3 -16
8 -28 12 -28 3 0 6 -19 6 -42 0 -24 4 -74 9 -112 5 -45 4 -66 -2 -62 -6 3 -12
0 -15 -6 -7 -20 -44 18 -51 52 -9 45 -37 67 -95 72 -28 3 -54 1 -57 -3 -12
-21 -85 -3 -106 26 -17 23 -47 151 -53 230 -11 117 -19 173 -31 196 -18 37
-29 145 -15 153 6 4 9 12 5 17 -3 6 3 13 14 16 18 4 33 25 46 65 8 27 134 29
198 3z m-4212 -80 c8 -7 25 -16 38 -19 16 -6 22 -15 22 -36 0 -18 11 -42 30
-63 17 -19 30 -42 30 -50 0 -9 6 -22 13 -29 26 -28 62 -125 72 -193 4 -28 14
-66 22 -85 8 -19 17 -72 20 -117 4 -59 10 -83 19 -83 7 0 18 -10 25 -21 10
-20 9 -21 -12 -16 -13 4 -30 7 -37 7 -7 0 -17 11 -22 25 -5 14 -17 25 -27 25
-37 0 -93 21 -93 35 0 8 -4 15 -10 15 -5 0 -10 9 -10 20 0 19 14 25 48 21 35
-5 -13 66 -88 128 -60 50 -90 60 -160 53 -143 -16 -195 -26 -208 -39 -11 -10
-17 -12 -20 -4 -5 16 -47 14 -62 -4 -9 -11 -16 -12 -31 -2 -15 9 -23 9 -39 -1
-11 -6 -31 -12 -45 -12 -14 0 -38 -6 -53 -13 -28 -15 -197 -23 -232 -12 -11 3
-20 13 -20 20 0 20 -19 28 -35 15 -10 -8 -15 -8 -20 0 -5 8 -13 6 -27 -6 -10
-10 -29 -19 -41 -19 -12 -1 -40 -2 -62 -3 -30 -2 -36 -5 -25 -12 22 -14 -2
-12 -52 4 -24 8 -60 18 -80 21 -41 8 -42 25 -2 25 14 0 24 6 24 14 0 9 15 15
45 18 42 3 61 -5 33 -14 -9 -3 -8 -8 2 -20 13 -14 17 -13 32 5 20 22 23 37 8
37 -6 0 -24 12 -40 27 -28 24 -29 28 -14 44 12 14 21 16 41 8 55 -20 303 -4
303 21 0 4 9 6 21 3 23 -6 59 26 59 53 0 15 -2 16 -17 2 -29 -24 -63 -29 -63
-9 0 9 -5 22 -11 28 -21 21 12 53 53 53 46 0 52 24 11 43 l-27 12 30 6 c26 6
25 7 -13 8 -23 0 -43 -3 -45 -9 -2 -6 -9 -6 -18 0 -21 13 -10 19 57 35 77 19
94 19 87 0 -6 -15 -1 -18 51 -30 l30 -7 -45 -21 c-43 -21 -45 -24 -44 -64 1
-23 4 -49 7 -58 8 -20 80 -20 97 0 7 8 23 15 37 15 13 0 34 9 46 21 13 11 29
18 39 15 63 -20 61 -20 56 2 -4 12 -3 20 1 17 5 -2 17 2 27 10 10 8 27 15 37
15 13 0 17 9 17 38 0 20 -5 44 -10 52 -13 20 25 40 66 33 19 -3 44 2 65 12 65
34 106 37 139 10z m-386 -143 c-14 -22 -56 -37 -79 -28 -14 5 -15 9 -4 22 7 8
26 21 43 28 36 16 56 5 40 -22z m-130 -31 c3 -5 -1 -14 -9 -21 -12 -10 -18
-10 -30 0 -18 15 -11 30 15 30 10 0 21 -4 24 -9z m5990 -316 c-6 -75 -16 -115
-30 -115 -11 0 -13 6 -9 22 4 11 7 43 7 70 0 40 3 48 17 46 9 -2 15 -13 15
-23z m-5394 -205 c23 -23 26 -40 7 -40 -7 0 -21 14 -30 30 -21 34 -7 40 23 10z
m32 -97 c8 -61 -12 -203 -33 -245 -19 -38 -70 -73 -92 -64 -7 2 -6 5 4 5 8 1
28 14 44 31 21 22 28 38 27 65 -1 19 2 35 7 35 15 0 7 54 -9 67 -13 10 -13 13
3 25 12 9 19 30 21 63 4 58 3 55 15 55 5 0 11 -17 13 -37z m-742 -248 c0 -8 6
-12 14 -9 10 4 22 -9 36 -42 18 -38 21 -57 15 -100 -5 -43 -3 -56 12 -71 10
-10 26 -31 36 -46 17 -26 17 -27 -4 -27 -12 0 -23 8 -26 19 -3 11 -17 24 -33
29 -23 9 -28 17 -34 62 -7 50 -23 80 -44 80 -12 0 -22 24 -22 50 0 10 -7 25
-15 33 -12 13 -10 17 17 30 34 17 48 14 48 -8z m5573 -27 c48 -48 66 -323 26
-404 -16 -35 -18 -47 -9 -65 23 -41 10 -215 -15 -205 -8 3 -16 0 -19 -7 -9
-23 -73 58 -81 102 -8 47 15 111 41 111 8 0 17 7 21 16 6 15 8 15 20 -2 11
-16 13 -11 13 40 0 38 -4 55 -11 51 -5 -4 -19 1 -29 10 -16 14 -23 15 -34 6
-12 -10 -20 -5 -45 30 -17 23 -31 48 -31 55 0 7 -8 17 -17 23 -31 17 -20 237
11 225 7 -3 16 1 19 9 7 19 122 23 140 5z m-6359 -83 c25 -38 59 -49 181 -56
l110 -6 -122 1 c-106 1 -125 4 -149 21 -32 24 -61 65 -46 65 5 0 17 -11 26
-25z m1269 18 c-7 -2 -19 -2 -25 0 -7 3 -2 5 12 5 14 0 19 -2 13 -5z m-504
-114 c-7 -4 -17 -5 -22 -2 -5 3 -3 9 4 14 7 4 17 5 22 2 5 -3 3 -9 -4 -14z
m409 -17 c6 -18 -15 -14 -22 4 -4 10 -1 14 6 12 6 -2 14 -10 16 -16z m-938
-62 c12 -8 9 -10 -12 -10 -16 0 -28 5 -28 10 0 13 20 13 40 0z m47 -6 c-3 -3
-12 -4 -19 -1 -8 3 -5 6 6 6 11 1 17 -2 13 -5z m1653 -598 c10 -13 7 -14 -17
-12 -36 5 -35 4 -28 16 9 14 31 12 45 -4z m181 4 c24 -13 24 -25 -1 -52 -23
-25 -37 -17 -40 22 -4 45 3 50 41 30z m-16 -120 c3 -5 2 -10 -4 -10 -5 0 -13
5 -16 10 -3 6 -2 10 4 10 5 0 13 -4 16 -10z m-3905 -40 c0 -22 -4 -40 -10 -40
-5 0 -10 18 -10 40 0 22 5 40 10 40 6 0 10 -18 10 -40z m383 33 c-13 -2 -33
-2 -45 0 -13 2 -3 4 22 4 25 0 35 -2 23 -4z m3551 -2 c3 -5 -1 -11 -9 -14 -9
-4 -12 -1 -8 9 6 16 10 17 17 5z m-4671 -166 c-6 -17 10 -19 37 -5 26 14 30
-5 34 -155 2 -106 0 -130 -14 -148 -9 -12 -20 -30 -23 -40 -4 -10 -11 -16 -17
-12 -5 3 -19 1 -30 -5 -26 -14 -56 1 -65 32 -4 13 -15 32 -24 43 -15 17 -16
34 -11 119 4 64 10 101 18 104 7 2 12 13 12 25 1 30 21 54 50 59 32 5 40 1 33
-17z m2328 -115 c5 0 9 -7 9 -16 0 -9 -5 -12 -12 -8 -10 6 -10 4 -2 -7 6 -8
12 -21 12 -29 4 -77 13 -135 26 -161 9 -17 13 -35 10 -40 -3 -5 0 -9 6 -9 6 0
21 -22 33 -50 12 -27 27 -50 34 -50 8 0 10 -7 6 -17 -6 -16 -5 -16 10 -4 11 9
17 10 17 2 0 -6 17 -19 38 -29 20 -9 41 -23 45 -29 4 -7 16 -13 27 -13 10 0
25 -7 34 -15 8 -8 19 -15 25 -15 6 0 27 -7 48 -16 169 -73 323 -107 488 -106
107 0 144 4 175 15 8 3 47 15 85 26 65 20 112 43 232 115 60 37 161 138 169
171 3 13 12 29 20 36 8 6 11 15 8 20 -3 5 3 9 13 10 16 0 16 1 -2 9 -18 8 -18
9 -2 9 14 1 17 6 12 21 -4 11 -2 20 4 20 6 0 11 11 11 25 0 14 -6 25 -12 25
-10 0 -10 2 -1 8 12 7 10 62 -2 82 -3 5 -1 11 4 15 31 19 81 -204 70 -310 -7
-68 -49 -181 -90 -240 -39 -57 -104 -122 -117 -117 -7 2 -12 -1 -12 -7 0 -6
-6 -11 -12 -11 -7 -1 -24 -14 -37 -30 -19 -23 -28 -27 -38 -19 -10 9 -13 8
-13 -5 0 -9 -7 -16 -15 -16 -7 0 -19 -8 -24 -17 -10 -17 -12 -17 -25 0 -13 16
-14 16 -20 1 -5 -13 -9 -15 -18 -6 -17 17 -25 15 -32 -10 l-7 -23 -11 25 -11
25 -10 -27 c-12 -30 -27 -37 -27 -13 0 20 -17 19 -29 -2 -9 -17 -10 -17 -16 0
-5 11 -11 14 -19 9 -16 -13 -84 -13 -92 -1 -4 8 -9 7 -15 -2 -6 -11 -13 -11
-26 -3 -14 9 -21 8 -32 -3 -11 -12 -15 -12 -27 4 -11 15 -13 16 -14 2 0 -20
-27 -21 -35 -1 -4 11 -8 12 -19 3 -11 -9 -17 -9 -27 2 -7 7 -23 11 -36 9 -13
-2 -23 1 -23 7 0 8 -6 7 -20 -1 -17 -11 -22 -10 -30 2 -8 13 -11 12 -24 -5
-14 -18 -15 -18 -16 -2 0 19 -20 23 -37 6 -8 -8 -13 -5 -18 11 -5 17 -12 20
-31 16 -14 -4 -24 -2 -24 4 0 7 -6 7 -20 0 -16 -9 -20 -8 -20 5 0 17 -11 20
-26 5 -8 -8 -15 -6 -24 5 -7 8 -20 15 -30 15 -10 0 -23 7 -30 15 -7 9 -19 14
-27 11 -7 -3 -13 1 -13 10 0 8 -4 13 -9 10 -11 -7 -71 23 -71 36 0 5 -7 7 -16
4 -10 -4 -18 0 -21 13 -3 11 -10 18 -17 15 -16 -6 -113 87 -126 121 -5 14 -14
24 -19 21 -6 -4 -31 35 -33 54 -1 3 -7 10 -14 15 -15 12 -32 69 -43 143 -6 42
-5 55 6 59 15 6 18 43 3 43 -10 0 -9 36 4 140 2 14 4 36 5 50 3 23 4 23 13 -7
6 -18 15 -33 19 -33z m-2651 38 c0 -7 -5 -20 -10 -28 -9 -13 -11 -13 -20 0
-16 24 -12 40 10 40 11 0 20 -6 20 -12z m34 -53 c3 -8 1 -15 -4 -15 -6 0 -10
7 -10 15 0 8 2 15 4 15 2 0 6 -7 10 -15z m1800 -89 c-3 -9 -10 -16 -16 -16 -5
0 -7 -4 -4 -9 3 -5 -1 -14 -9 -21 -8 -7 -15 -11 -16 -9 -6 29 -4 46 7 42 7 -2
18 5 24 17 13 24 24 22 14 -4z m-1794 -19 c0 -19 -21 -37 -43 -37 -13 0 -17 5
-13 16 3 9 6 20 6 25 0 5 11 9 25 9 14 0 25 -6 25 -13z m60 -8 c0 -18 -31 -22
-42 -5 -13 19 -9 26 17 24 15 -2 25 -9 25 -19z m1660 -69 c0 -5 -5 -10 -11
-10 -5 0 -7 5 -4 10 3 6 8 10 11 10 2 0 4 -4 4 -10z m-1500 -89 c0 -25 -5 -41
-15 -45 -12 -4 -15 4 -15 39 0 33 4 45 15 45 11 0 15 -11 15 -39z m-120 -11
c0 -5 -9 -10 -20 -10 -11 0 -20 5 -20 10 0 6 9 10 20 10 11 0 20 -4 20 -10z
m1503 -72 c-6 -7 -34 -44 -63 -81 -35 -45 -58 -66 -67 -63 -43 17 -65 17 -89
1 -35 -23 -38 -16 -9 21 17 22 49 41 109 64 47 18 93 41 102 51 19 21 32 26
17 7z m904 -120 c-3 -7 -5 -2 -5 12 0 14 2 19 5 13 2 -7 2 -19 0 -25z m73
-122 c0 -3 -4 -8 -10 -11 -5 -3 -10 -1 -10 4 0 6 5 11 10 11 6 0 10 -2 10 -4z
m150 -81 c12 -20 36 -42 54 -50 29 -14 29 -15 4 -10 -15 3 -30 0 -33 -5 -9
-15 -25 -2 -19 15 3 8 -4 30 -16 50 -12 19 -19 35 -17 35 3 0 15 -16 27 -35z
m1294 -123 c-27 -38 -73 -72 -98 -72 -7 0 -22 -9 -34 -20 -12 -12 -22 -18 -22
-16 0 3 -16 -3 -35 -14 -20 -11 -42 -20 -50 -20 -8 0 -15 -4 -15 -9 0 -8 -32
-17 -95 -27 -11 -1 -31 -6 -45 -9 -64 -15 -209 -13 -295 5 -100 20 -175 47
-175 62 0 7 4 7 13 1 6 -6 26 -14 42 -18 17 -5 35 -9 40 -11 131 -35 266 -37
410 -7 106 22 296 114 344 166 43 47 52 41 15 -11z m-1145 -58 c17 -8 29 -19
26 -24 -3 -5 -1 -12 5 -15 6 -4 9 -3 8 2 -2 4 2 9 7 9 18 3 55 -15 55 -26 0
-5 11 -10 24 -10 13 0 26 -3 28 -7 2 -5 26 -19 53 -33 28 -13 62 -32 77 -42
15 -10 32 -17 39 -16 7 2 17 -7 24 -19 9 -18 12 -19 21 -6 8 13 14 12 49 -7
22 -13 57 -23 78 -23 27 0 37 -4 38 -16 0 -10 2 -12 6 -3 2 6 14 12 24 12 12
0 17 -4 14 -11 -4 -6 3 -5 14 3 18 11 23 11 32 -2 8 -11 12 -12 16 -2 2 6 11
12 19 12 8 0 14 -6 14 -12 0 -9 3 -8 10 2 8 13 23 18 70 22 8 0 21 5 28 11 10
8 16 7 23 -4 7 -11 9 -11 9 0 0 8 7 11 19 8 11 -3 22 1 25 9 3 8 12 11 21 8 9
-4 22 1 30 12 14 18 14 18 15 -6 l2 -25 10 28 c10 29 23 35 31 15 3 -7 6 -3 6
9 1 28 36 49 56 33 7 -6 15 -7 17 -2 5 14 48 25 48 13 0 -6 10 -1 22 11 21 21
22 21 28 2 9 -24 2 -33 -10 -14 -15 23 -12 6 5 -27 8 -17 12 -38 9 -48 -5 -13
-11 -8 -25 22 -18 36 -18 33 -3 -29 4 -18 2 -28 -5 -28 -6 0 -11 -7 -11 -16 0
-10 -6 -14 -14 -11 -9 4 -16 -3 -20 -19 -4 -13 -13 -24 -20 -24 -8 0 -16 -10
-19 -22 -4 -12 -9 -19 -12 -16 -3 3 -32 -7 -64 -22 -32 -16 -90 -35 -129 -43
-39 -8 -75 -18 -80 -21 -6 -4 -13 -3 -15 2 -6 9 -70 7 -86 -2 -5 -4 -12 -2
-16 4 -4 7 -12 7 -25 0 -13 -7 -21 -7 -25 0 -5 8 -11 7 -20 0 -8 -7 -19 -9
-26 -5 -6 4 -32 9 -57 11 -25 2 -48 7 -51 12 -3 4 -28 7 -55 7 -27 0 -55 5
-62 12 -7 7 -19 13 -27 13 -7 0 -17 3 -21 8 -4 4 -11 7 -14 8 -17 2 -62 28
-62 37 0 5 -7 6 -16 3 -16 -6 -109 77 -109 98 0 6 -7 11 -15 11 -9 0 -14 9
-13 23 2 12 -2 22 -7 22 -6 0 -10 14 -10 31 0 16 -4 28 -9 25 -12 -8 -34 21
-26 34 3 5 2 10 -3 10 -11 0 -23 40 -16 52 7 10 6 11 43 -8z m3026 -3 c3 -5 1
-12 -5 -16 -5 -3 -10 1 -10 9 0 18 6 21 15 7z m-2818 -27 c-3 -3 -12 -4 -19
-1 -8 3 -5 6 6 6 11 1 17 -2 13 -5z m-1645 -21 c22 -20 24 -69 2 -77 -50 -19
-104 9 -104 54 0 40 67 55 102 23z m2903 -5 c6 -4 -3 -8 -18 -8 -23 0 -26 2
-15 14 7 8 15 11 18 8 3 -4 10 -10 15 -14z m-36 -49 c-25 -16 -32 -9 -13 12
12 13 20 16 22 9 3 -7 -2 -16 -9 -21z m46 11 c-3 -5 -11 -10 -16 -10 -6 0 -7
5 -4 10 3 6 11 10 16 10 6 0 7 -4 4 -10z m2 -30 c15 0 34 -33 39 -69 10 -72
11 -202 2 -246 -5 -27 -11 -57 -12 -65 -1 -9 -5 -21 -10 -28 -4 -6 -4 -17 -1
-22 3 -6 -1 -17 -9 -26 -16 -16 -22 -39 -8 -30 4 2 6 -10 4 -28 l-4 -32 -33
33 c-25 25 -34 44 -39 85 -4 29 -11 57 -15 63 -5 5 -12 28 -16 50 -8 48 -13
57 -26 50 -5 -4 -5 -13 0 -24 6 -10 11 -37 12 -60 2 -23 6 -44 11 -47 4 -3 5
-11 1 -20 -7 -20 -33 1 -33 27 0 11 -5 19 -11 19 -6 0 -9 7 -6 15 4 8 0 27 -8
42 -17 32 -20 83 -5 83 6 0 10 -4 10 -10 0 -5 7 -10 15 -10 19 0 19 16 0 70
-8 23 -12 46 -9 51 2 5 0 17 -6 28 -11 21 -3 54 10 46 5 -3 15 3 22 12 19 25
57 45 70 37 7 -5 8 -2 3 6 -6 10 -2 12 16 7 13 -4 29 -7 36 -7z m5197 1 c9
-14 -4 -41 -20 -41 -15 0 -17 10 -8 34 7 18 20 21 28 7z m-377 -85 c1 -1 5
-32 8 -68 4 -59 19 -114 35 -128 3 -3 16 -22 29 -42 39 -65 131 -124 131 -85
0 14 60 47 86 47 8 0 17 6 20 13 7 18 152 15 166 -4 7 -11 11 -11 15 -2 2 7
23 18 46 24 23 6 45 16 48 21 4 6 22 12 40 14 19 2 36 9 38 15 5 15 53 35 94
38 21 2 21 3 2 11 -20 9 -20 9 0 9 12 1 26 6 32 12 7 7 20 4 44 -11 19 -11 41
-23 50 -26 17 -6 62 -90 55 -102 -2 -4 0 -27 5 -52 23 -112 30 -391 10 -428
-9 -18 -21 -22 -58 -22 -44 0 -50 4 -95 52 -26 29 -48 59 -48 67 0 8 -7 22
-15 31 -8 9 -22 48 -31 86 -22 99 -33 118 -72 122 -29 3 -34 -1 -48 -33 -8
-20 -22 -39 -32 -42 -9 -4 -28 -15 -41 -25 -13 -10 -34 -18 -47 -18 -13 0 -24
-4 -24 -10 0 -5 9 -10 20 -10 27 0 25 -14 -5 -30 -30 -16 -55 0 -55 34 0 27
-18 46 -35 40 -7 -3 -16 -1 -20 5 -3 6 -15 11 -26 11 -10 0 -19 5 -19 10 0 15
-38 12 -43 -2 -2 -8 -21 -13 -47 -13 -39 0 -44 -3 -61 -35 -10 -19 -24 -42
-31 -50 -17 -19 -12 -167 6 -222 16 -46 11 -71 -19 -104 -57 -62 -121 -87
-180 -71 -11 3 -23 6 -26 6 -3 1 -16 16 -30 34 -23 30 -24 40 -24 172 -1 77
-7 192 -15 255 -27 232 -11 396 46 467 32 39 65 54 99 46 11 -3 21 -6 22 -7z
m-5029 -217 c2 -13 8 -28 13 -33 5 -6 9 -18 9 -27 0 -10 6 -19 13 -22 6 -2 8
-8 4 -13 -12 -13 -57 43 -57 71 0 13 -3 31 -7 41 -4 12 -2 15 8 12 8 -2 16
-15 17 -29z m-49 -58 c-8 -2 -8 -5 1 -11 7 -4 9 -13 5 -19 -12 -20 -35 8 -35
44 0 43 10 50 27 18 10 -20 11 -29 2 -32z m-1159 25 c0 -3 -4 -8 -10 -11 -5
-3 -10 -1 -10 4 0 6 5 11 10 11 6 0 10 -2 10 -4z m1037 -43 c-3 -10 -5 -4 -5
12 0 17 2 24 5 18 2 -7 2 -21 0 -30z m-267 18 c0 -4 12 -6 26 -3 25 5 26 3 19
-29 -4 -19 -11 -38 -16 -43 -5 -6 -9 -29 -9 -53 0 -52 25 -60 41 -13 11 29 23
38 32 23 2 -5 3 -3 1 3 -1 6 2 17 6 24 7 11 12 11 23 2 7 -7 17 -10 21 -7 3 3
2 -1 -4 -7 -5 -7 -10 -19 -10 -28 0 -55 -82 -225 -115 -239 -5 -2 -22 -16 -37
-31 -15 -15 -34 -30 -43 -33 -20 -8 -19 -27 3 -43 14 -12 15 -15 3 -23 -11 -7
-19 -5 -27 7 -11 15 -13 15 -19 2 -3 -9 -4 -26 -3 -39 2 -13 -2 -26 -9 -28
-15 -5 -43 53 -43 91 0 27 -51 208 -70 246 -4 9 -35 20 -81 28 -129 22 -127
21 -145 61 -9 20 -19 40 -22 44 -2 5 5 4 17 -2 12 -7 26 -9 31 -6 5 3 12 0 15
-5 4 -7 19 -8 36 -5 25 6 29 4 29 -14 0 -12 5 -21 10 -21 6 0 10 9 10 20 0 11
5 20 11 20 6 0 9 -7 5 -15 -3 -8 3 -19 14 -25 13 -7 20 -6 23 3 3 9 9 9 25 0
17 -10 24 -10 38 4 16 16 16 16 10 -4 -8 -26 11 -42 21 -17 3 9 7 35 7 57 1
22 6 42 12 44 8 3 10 -12 6 -45 -2 -31 0 -52 7 -56 7 -5 11 7 11 37 0 71 28
132 44 95 3 -9 8 -8 16 5 7 11 18 16 30 12 10 -3 21 -1 25 5 8 12 25 13 25 1z
m247 -39 c1 -21 -5 -31 -28 -45 -35 -19 -60 -13 -32 9 10 7 15 14 11 14 -7 0
34 50 42 50 3 0 6 -12 7 -28z m-881 -49 c10 -21 19 -42 19 -48 0 -5 4 -16 9
-23 8 -13 -9 -42 -24 -42 -8 0 -20 50 -21 82 0 10 -4 20 -9 23 -7 4 -3 45 5
45 2 0 11 -17 21 -37z m57 21 c9 -9 -4 -35 -14 -28 -5 3 -9 12 -9 20 0 14 12
19 23 8z m70 -44 c3 -11 1 -20 -4 -20 -5 0 -9 4 -9 9 0 5 -3 17 -7 27 -4 11
-3 15 4 11 6 -4 13 -16 16 -27z m-197 4 c-4 -9 -1 -23 6 -31 14 -17 -4 -33
-36 -33 -19 0 -19 1 -1 20 14 16 16 23 7 32 -18 18 -14 28 9 28 15 0 19 -4 15
-16z m150 -20 c-3 -7 -1 -16 5 -19 11 -7 2 -25 -12 -25 -6 0 -7 5 -4 10 4 6 1
17 -5 25 -6 8 -9 19 -5 25 9 14 28 1 21 -16z m-126 -74 c0 -5 -4 -10 -10 -10
-5 0 -10 5 -10 10 0 6 5 10 10 10 6 0 10 -4 10 -10z m10 -40 c0 -5 -8 -10 -17
-10 -15 0 -16 2 -3 10 19 12 20 12 20 0z m-50 -64 c0 -3 -4 -8 -10 -11 -5 -3
-10 -1 -10 4 0 6 5 11 10 11 6 0 10 -2 10 -4z m-50 -71 c0 -5 -5 -3 -10 5 -5
8 -10 20 -10 25 0 6 5 3 10 -5 5 -8 10 -19 10 -25z m6720 -35 c0 -5 -6 -10
-12 -10 -7 -1 -2 -10 11 -21 19 -16 22 -22 12 -29 -11 -6 -9 -11 8 -19 l22
-12 -21 -38 c-20 -34 -38 -47 -130 -91 -10 -5 -28 3 -52 22 -45 36 -48 72 -7
121 21 25 40 36 71 42 24 4 37 9 31 12 -20 7 -15 21 10 26 41 8 57 7 57 -3z
m-6095 -179 c3 -5 1 -12 -5 -16 -5 -3 -10 1 -10 9 0 18 6 21 15 7z m-35 -68
c-1 -10 -7 -34 -15 -53 -7 -19 -24 -64 -38 -100 -28 -74 -54 -95 -43 -35 4 21
19 63 32 94 14 31 30 68 37 84 13 31 27 36 27 10z m4978 -70 c2 -8 -5 -13 -16
-13 -14 0 -19 -5 -16 -17 5 -19 -37 -45 -53 -34 -15 10 -21 47 -11 65 11 20
89 19 96 -1z"/>
<path d="M2634 12156 c-10 -25 0 -33 25 -20 l23 12 -21 11 c-17 10 -22 9 -27
-3z"/>
<path d="M2782 5608 c-7 -7 -12 -18 -12 -25 0 -19 27 -4 33 18 6 22 -3 25 -21
7z"/>
<path d="M2723 5524 c-9 -23 11 -38 26 -20 13 16 7 36 -10 36 -5 0 -12 -7 -16
-16z"/>
<path d="M2649 5255 c-6 -27 -1 -50 11 -50 8 0 15 6 14 13 -3 36 -5 42 -14 42
-5 0 -10 -2 -11 -5z"/>
<path d="M2710 5196 c6 -8 18 -12 26 -9 19 7 7 23 -18 23 -17 0 -18 -3 -8 -14z"/>
<path d="M5825 4013 c-81 -18 -125 -53 -125 -100 0 -18 -5 -53 -12 -77 -11
-41 -10 -50 10 -89 12 -24 22 -49 22 -56 0 -6 7 -11 15 -11 9 0 12 -6 8 -17
-4 -10 -2 -14 4 -10 6 4 21 -2 34 -12 22 -17 24 -17 36 -2 9 12 15 13 21 4 5
-8 12 -2 21 18 7 16 27 37 43 45 17 9 43 30 57 47 28 33 53 77 44 77 -3 0 0 7
7 15 15 18 -6 69 -42 101 -22 20 -113 75 -120 73 -2 -1 -12 -3 -23 -6z"/>
<path d="M7204 3950 c-45 -18 -69 -96 -49 -161 4 -11 27 -33 52 -49 37 -24 49
-27 75 -19 18 5 34 12 37 16 3 5 15 13 26 19 36 20 52 63 42 115 -8 41 -14 48
-53 68 -46 22 -93 26 -130 11z"/>
<path d="M5778 3513 c11 -4 10 -8 -1 -22 -16 -18 -29 -83 -15 -74 5 3 7 -12 4
-34 -6 -37 -6 -38 7 -10 7 15 17 24 21 20 4 -4 11 -1 16 7 15 23 12 30 -10 30
-11 0 -20 5 -20 10 0 6 6 9 13 8 8 -2 12 10 12 35 1 31 -2 37 -20 36 -11 0
-14 -3 -7 -6z"/>
<path d="M4320 4496 c0 -8 -3 -23 -7 -33 -6 -17 -6 -17 10 -1 19 19 22 34 7
43 -5 3 -10 0 -10 -9z"/>
<path d="M4417 4504 c-9 -9 4 -35 14 -28 5 3 9 12 9 20 0 14 -12 19 -23 8z"/>
<path d="M4497 4244 c-8 -8 3 -34 14 -34 11 0 12 27 0 34 -4 3 -11 3 -14 0z"/>
<path d="M3854 3499 c-3 -6 -1 -16 5 -22 8 -8 11 -5 11 11 0 24 -5 28 -16 11z"/>
<path d="M480 2040 c0 -5 5 -10 11 -10 5 0 7 5 4 10 -3 6 -8 10 -11 10 -2 0
-4 -4 -4 -10z"/>
<path d="M3865 790 c-4 -12 -5 -24 -2 -27 3 -2 8 5 12 17 4 12 5 24 2 27 -3 2
-8 -5 -12 -17z"/>
<path d="M4080 789 c0 -5 5 -7 10 -4 6 3 10 8 10 11 0 2 -4 4 -10 4 -5 0 -10
-5 -10 -11z"/>
<path d="M9625 11420 c3 -5 10 -10 16 -10 5 0 9 5 9 10 0 6 -7 10 -16 10 -8 0
-12 -4 -9 -10z"/>
<path d="M12770 5689 c-8 -13 -8 -24 -2 -32 6 -7 12 -25 15 -42 2 -16 5 -2 6
33 0 34 -1 62 -4 62 -2 0 -9 -9 -15 -21z"/>
<path d="M7415 5082 c-35 -45 -37 -52 -18 -52 31 0 48 16 35 32 -9 11 -9 17 0
26 6 6 10 14 7 16 -2 2 -13 -8 -24 -22z"/>
<path d="M318 4034 c-16 -8 -28 -22 -28 -32 0 -9 -3 -26 -6 -37 -6 -24 54 -95
80 -95 39 0 102 89 74 106 -4 3 -6 9 -3 14 5 9 -66 60 -82 60 -5 -1 -20 -8
-35 -16z"/>
<path d="M1742 3993 c-54 -11 -62 -88 -11 -124 46 -33 67 -33 99 0 36 35 39
77 10 109 -20 21 -45 25 -98 15z"/>
<path d="M1745 2800 c-3 -5 -1 -10 4 -10 6 0 11 5 11 10 0 6 -2 10 -4 10 -3 0
-8 -4 -11 -10z"/>
<path d="M88 1753 c7 -3 16 -2 19 1 4 3 -2 6 -13 5 -11 0 -14 -3 -6 -6z"/>
<path d="M6314 865 c-9 -24 22 -53 38 -37 9 9 10 17 2 29 -15 24 -33 27 -40 8z"/>
<path d="M6305 790 c10 -11 28 -20 40 -20 38 0 37 13 -2 27 -52 18 -59 16 -38
-7z"/>
<path d="M5530 260 c-7 -13 -7 -20 -1 -20 6 0 15 9 21 20 7 13 7 20 1 20 -6 0
-15 -9 -21 -20z"/>
<path d="M5582 234 c4 -20 34 -41 45 -31 10 11 -11 41 -31 45 -12 3 -17 -2
-14 -14z"/>
<path d="M5560 185 c0 -13 36 -35 58 -35 15 0 22 4 17 9 -11 9 -75 32 -75 26z"/>
<path d="M7058 3 c7 -3 16 -2 19 1 4 3 -2 6 -13 5 -11 0 -14 -3 -6 -6z"/>
</g>
</svg>
